HIERARCHY
ROOT Hips
{
  OFFSET 219.075 95.8898 529.492
  CHANNELS 6 Xposition Yposition Zposition Zrotation Xrotation Yrotation
  JOINT RightUpLeg
  {
    OFFSET -8.9458 -8.66707 0.101652
    CHANNELS 3 Zrotation Xrotation Yrotation
    JOINT RightLeg
    {
      OFFSET 0 -44.4227 1.3727
      CHANNELS 3 Zrotation Xrotation Yrotation
      JOINT RightFoot
      {
        OFFSET 0.253549 -42.0924 -1.46059
        CHANNELS 3 Zrotation Xrotation Yrotation
        JOINT RightToes
        {
          OFFSET 0.04 -4.41509 8.4991
          CHANNELS 3 Zrotation Xrotation Yrotation
          End Site
          {
            OFFSET -0.08 -0.137448 9.77979
          }
        }
      }
    }
  }
  JOINT Spine
  {
    OFFSET 0 11.8905 0
    CHANNELS 3 Zrotation Xrotation Yrotation
    JOINT Spine1
    {
      OFFSET 0 25.6574 0.127663
      CHANNELS 3 Zrotation Xrotation Yrotation
      JOINT HEad
      {
        OFFSET 0 8.73416 0.011341
        CHANNELS 3 Zrotation Xrotation Yrotation
        End Site
        {
          OFFSET -0.29 12.7742 2.51395
        }
      }
      JOINT LeftShoulder1
      {
        OFFSET 8.99 -0.362252 -0.22
        CHANNELS 3 Zrotation Xrotation Yrotation
        JOINT LeftArm
        {
          OFFSET 10.2827 -0.00338 0.322123
          CHANNELS 3 Zrotation Xrotation Yrotation
          JOINT LeftForeArm
          {
            OFFSET 32.7669 0.099144 -1.42434
            CHANNELS 3 Zrotation Xrotation Yrotation
            JOINT LeftHand
            {
              OFFSET 27.5643 0.085362 1.02216
              CHANNELS 3 Zrotation Xrotation Yrotation
              End Site
              {
                OFFSET 16.7443 -0.6 1.50291
              }
            }
          }
        }
      }
      JOINT RightShoulder
      {
        OFFSET -8.99 -0.362252 -0.22
        CHANNELS 3 Zrotation Xrotation Yrotation
        JOINT RightArm
        {
          OFFSET -10.2827 -0.00338 0.322123
          CHANNELS 3 Zrotation Xrotation Yrotation
          JOINT RightForeArm
          {
            OFFSET -32.8971 0.099144 -1.42434
            CHANNELS 3 Zrotation Xrotation Yrotation
            JOINT RightHand
            {
              OFFSET -27.4921 0.085362 1.02216
              CHANNELS 3 Zrotation Xrotation Yrotation
              End Site
              {
                OFFSET -16.6312 -0.6 1.50291
              }
            }
          }
        }
      }
    }
  }
  JOINT LeftUpLeg
  {
    OFFSET 8.9458 -8.66707 0.101652
    CHANNELS 3 Zrotation Xrotation Yrotation
    JOINT LeftLeg
    {
      OFFSET 0 -44.4227 1.3727
      CHANNELS 3 Zrotation Xrotation Yrotation
      JOINT LeftFoot
      {
        OFFSET -0.253549 -42.0924 -1.46059
        CHANNELS 3 Zrotation Xrotation Yrotation
        JOINT LeftToes
        {
          OFFSET -0.04 -4.41509 8.4991
          CHANNELS 3 Zrotation Xrotation Yrotation
          End Site
          {
            OFFSET 0.08 -0.047448 9.77979
          }
        }
      }
    }
  }
}
MOTION
Frames:	21
Frame Time:	0.0166667
181.413 98.2113 625.02 -13.652 -8.09479 -58.0529 -25.1782 -3.01718 18.1621 41.9037 39.559 -48.6385 -32.0915 2.50263 -1.3179 0.0462048 0.000533403 0.662642 -3.21428 24.3127 -0.762744 -0.0101403 0.00861002 -1.85323e-007 -2.10112 7.93598 13.4167 7.95139e-016 7.95139e-016 6.36111e-015 -164.736 -60.0002 -135.939 -94.2118 61.8673 -21.1473 19.2055 17.6037 -15.4569 19.0755 6.88615 -2.91221 101.753 -11.335 70.3912 33.9258 57.111 93.21 18.0241 19.3649 -1.7249 20.1579 -11.4634 -19.1319 -33.289 11.6371 83.3813 12.5441 -3.32763 0.40348 -1.18447e-009 1.5602e-007 -4.87131e-009 
181.301 98.4562 624.138 -13.8348 -7.93443 -58.2149 -25.5354 -2.87712 18.3355 42.2998 39.7484 -48.6711 -32.059 2.5661 -1.33008 0.0462048 0.000533403 0.662642 -2.76539 24.0832 -0.883473 -0.0101403 0.00861002 -1.85323e-007 -2.72016 8.60095 13.3808 -4.41391e-032 7.95139e-016 3.18055e-015 -166.076 -60.49 -137.069 -95.0753 61.7291 -20.5136 19.1659 17.5979 -15.3469 18.6951 7.02971 -3.17505 101.51 -11.2143 70.1514 34.071 57.2895 93.3674 17.7845 19.4026 -1.81393 20.1274 -11.3654 -19.7721 -31.8751 11.5987 82.6213 12.5021 -3.56174 0.437519 -1.18447e-009 1.5602e-007 -4.87131e-009 
181.195 98.6018 623.15 -14.0236 -7.75717 -58.4073 -25.8844 -2.6903 18.544 42.6533 39.6958 -48.6035 -32.0751 2.60892 -1.34821 0.0462048 0.000533403 0.662642 -2.25172 23.824 -1.01361 -0.0101403 0.00861002 -1.85323e-007 -3.32712 9.26603 13.3746 -6.62086e-032 3.97569e-016 9.54166e-015 -167.187 -61.0618 -138.012 -95.4952 61.5734 -20.2272 19.1195 17.5942 -15.3222 18.1959 7.20511 -3.46401 101.388 -11.0034 69.986 34.3068 57.3738 93.518 17.6271 19.3558 -2.05801 20.1935 -11.2676 -20.2566 -30.4724 11.5972 81.7066 12.3813 -3.79216 0.467086 -1.18446e-009 1.5602e-007 -4.87131e-009 
181.098 98.6392 622.064 -14.1954 -7.5856 -58.627 -26.0269 -2.38665 18.8083 42.8505 38.523 -48.4709 -32.0326 2.55613 -1.38721 0.0462048 0.000533403 0.662642 -1.72331 23.5393 -1.14704 -0.0101403 0.00861002 -1.85323e-007 -3.90711 9.92021 13.4013 7.95139e-016 -3.97569e-016 3.18055e-015 -168.107 -61.689 -138.813 -95.5453 61.404 -20.2272 19.0987 17.5666 -15.3325 17.5972 7.40162 -3.77092 101.439 -10.5819 69.8481 34.427 57.5909 93.6269 17.4634 19.2127 -2.25567 20.2996 -11.175 -20.5959 -29.0308 11.6241 80.6289 12.1796 -3.9681 0.490522 -1.18447e-009 1.5602e-007 -4.87131e-009 
181.004 98.5398 620.894 -14.332 -7.4362 -58.872 -25.903 -1.91968 19.1102 42.7995 36.5249 -48.2929 -31.9484 2.42869 -1.43216 0.0462048 0.000533403 0.662642 -1.21572 23.2317 -1.27766 -0.0101403 0.00861002 -1.85323e-007 -4.45114 10.5515 13.4601 -0 -1.59028e-015 -0 -168.914 -62.3444 -139.56 -95.3331 61.2175 -20.4365 19.0669 17.5724 -15.4129 16.9304 7.60483 -4.01337 101.68 -9.96511 69.7691 34.4059 57.8599 93.4613 17.0373 19.1099 -2.35722 20.4133 -11.1388 -20.7916 -27.5724 11.7541 79.4205 11.8569 -4.08904 0.497849 -1.18447e-009 1.5602e-007 -4.87131e-009 
180.907 98.3053 619.653 -14.4286 -7.30938 -59.1417 -25.5681 -1.28424 19.4224 42.4908 34.1317 -48.0375 -31.8448 2.25381 -1.47161 0.0462048 0.000533403 0.662642 -0.735501 22.9022 -1.40226 -0.0101403 0.00861002 -1.85323e-007 -4.95261 11.1505 13.5503 -7.95139e-016 1.59028e-015 9.54166e-015 -169.697 -63.0006 -140.363 -94.9629 61.0068 -20.7835 19.0348 17.6065 -15.523 16.2593 7.79574 -4.18107 102.066 -9.15513 69.7291 34.203 58.1896 93.0101 16.5397 19.0478 -2.11739 20.5152 -11.2097 -20.8549 -26.11 12.0793 78.12 11.3622 -4.15814 0.482468 -1.18446e-009 1.5602e-007 -4.87131e-009 
180.813 98.0393 618.366 -14.4918 -7.20115 -59.4373 -25.0871 -0.455815 19.7304 41.823 31.5822 -47.5696 -31.5808 2.14435 -1.49654 0.0462048 0.000533403 0.662642 -0.270553 22.5563 -1.51794 -0.0101403 0.00861002 -1.85323e-007 -5.40763 11.7096 13.6701 -0 -7.95139e-016 -0 -170.53 -63.6344 -141.314 -94.513 60.7679 -21.2205 18.9698 17.6963 -15.6734 15.647 7.95364 -4.25549 102.54 -8.19678 69.7269 33.8389 58.5186 92.2522 15.8145 19.0809 -1.66578 21.6138 -10.7138 -20.9588 -26.2012 12.8061 75.4507 -4.44268 -4.68465 -0.6661 -1.18446e-009 1.5602e-007 -4.87131e-009 
180.676 97.5555 617.083 -14.5381 -7.09828 -59.7553 -24.7182 0.277392 20.0281 41.5328 29.3949 -47.4462 -31.132 1.6878 -1.50209 0.0462048 0.000533403 0.662642 0.215764 22.2 -1.62939 -0.0101403 0.00861002 -1.85323e-007 -5.81625 12.2242 13.817 -0 -1.19271e-015 -0 -171.443 -64.2309 -142.46 -94.0222 60.503 -21.7278 18.8792 17.8174 -15.8256 15.1555 8.06421 -4.23367 103.035 -7.13859 69.7389 33.3171 58.8463 91.2609 15.0918 19.1498 -0.897753 22.4947 -9.87446 -21.0565 -24.7111 13.2022 72.6493 -20.2931 -4.0418 -1.58615 -1.18447e-009 1.5602e-007 -4.87131e-009 
180.548 97.2373 615.72 -14.5878 -6.98909 -60.09 -24.2069 1.17058 20.2698 40.8158 27.1671 -46.982 -30.5182 1.5228 -1.50682 0.0462048 0.000533403 0.662642 0.765152 21.8429 -1.74234 -0.0101403 0.00861002 -1.85323e-007 -6.18072 12.6931 13.9868 -2.20695e-032 -3.97569e-016 -3.18055e-015 -172.429 -64.7865 -143.794 -93.5047 60.2209 -22.2996 18.7545 17.9541 -15.9591 14.8033 8.12609 -4.10424 103.518 -6.03748 69.7561 32.6647 59.1501 90.078 14.2902 19.2464 -0.0115551 22.8294 -11.0149 -20.7868 -24.3408 14.3223 71.0667 -12.295 -3.83745 -1.109 -1.18446e-009 1.5602e-007 -4.87131e-009 
180.396 96.8359 614.37 -14.6604 -6.86764 -60.4331 -23.8299 1.90944 20.478 40.4873 25.3345 -46.7976 -29.7653 1.18534 -1.49567 0.0462048 0.000533403 0.662642 1.4087 21.4967 -1.86113 -0.0101403 0.00861002 -1.85323e-007 -6.50288 13.1182 14.1733 1.54487e-031 -1.39149e-015 6.36111e-015 -173.47 -65.3084 -145.266 -92.9668 59.9354 -22.9265 18.6134 18.0615 -16.0172 14.5718 8.15377 -3.87432 103.981 -4.93569 69.7593 31.8997 59.4383 88.769 13.6123 19.313 1.01024 23.5562 -11.3058 -20.7412 -23.3553 15.1526 69.5624 -16.6716 -3.74144 -1.26776 -1.18447e-009 1.5602e-007 -4.87132e-009 
180.165 96.4827 612.967 -14.773 -6.73166 -60.7754 -23.4378 2.59557 20.63 40.306 23.7581 -46.7185 -28.95 0.857175 -1.49302 0.0462048 0.000533403 0.662642 2.1611 21.1749 -1.98672 -0.0101403 0.00861002 -1.85323e-007 -6.78182 13.5049 14.3696 7.95139e-016 -1.98785e-016 3.18055e-015 -174.543 -65.8111 -146.808 -92.4189 59.6634 -23.5853 18.4614 18.12 -15.9846 14.4292 8.17122 -3.58862 104.409 -3.85296 69.6949 31.0137 59.7789 87.4891 13.0013 19.3415 2.005 23.9666 -12.1442 -20.7625 -21.2591 18.2753 67.2949 -17.9656 -3.55911 -1.29033 -1.18446e-009 1.5602e-007 -4.87131e-009 
179.934 96.13 611.547 -14.9345 -6.58534 -61.1036 -23.0934 3.12715 20.7296 40.4043 22.4909 -46.8384 -28.0958 0.542264 -1.47674 0.0462048 0.000533403 0.662642 3.03618 20.8868 -2.12784 -0.0101403 0.00861002 -1.85323e-007 -7.03705 13.8592 14.5696 -0 0 6.36111e-015 -175.644 -66.3083 -148.359 -91.8506 59.3963 -24.2597 18.3117 18.1169 -15.8668 14.3669 8.19805 -3.27145 104.494 -3.42988 69.6317 30.7866 59.5014 86.6723 12.3351 19.6428 2.65211 24.4381 -12.8814 -20.9352 -19.4254 20.7166 65.6148 -21.7136 -3.30773 -1.39306 -1.18447e-009 1.5602e-007 -4.87131e-009 
179.732 95.8162 610.024 -15.1432 -6.43191 -61.3935 -22.6853 3.49913 20.7304 40.6859 21.4759 -47.1278 -27.2865 0.337541 -1.45599 0.0462048 0.000533403 0.662642 4.02387 20.6348 -2.29631 -0.0101403 0.00861002 -1.85323e-007 -7.25968 14.1852 14.7668 2.98177e-016 1.68967e-015 9.54166e-015 -176.738 -66.8096 -149.841 -91.2664 59.1519 -24.9246 18.1701 18.0637 -15.7007 14.3101 8.24603 -2.94961 104.371 -3.46759 69.5396 30.9836 59.0245 86.1257 12.9368 19.6153 2.75068 24.7498 -13.6011 -21.2283 -15.9231 22.0925 63.493 -25.9796 -3.35107 -1.56468 -1.18447e-009 1.5602e-007 -4.87132e-009 
179.549 95.5162 608.485 -15.3908 -6.27943 -61.6271 -22.255 3.73865 20.6458 41.1526 20.7067 -47.5889 -26.486 0.217804 -1.43727 0.0462048 0.000533403 0.662642 5.09926 20.4191 -2.49666 -0.0101403 0.00861002 -1.85323e-007 -7.44219 14.4845 14.9532 -1.98785e-016 1.88845e-015 6.36111e-015 -177.779 -67.3167 -151.17 -90.6687 58.9482 -25.5591 18.0419 17.9692 -15.5153 14.2143 8.3169 -2.63157 104.155 -3.77718 69.4228 31.4318 58.4555 85.7658 13.009 19.7352 2.97237 24.8411 -14.5392 -21.6984 -13.7209 23.7408 62.3245 -27.1826 -3.13913 -1.61511 -1.18446e-009 1.5602e-007 -4.87131e-009 
179.404 95.1931 606.949 -15.6683 -6.13767 -61.7949 -21.8632 3.80127 20.4753 41.9019 20.225 -48.289 -25.6954 0.109824 -1.4153 0.0462048 0.000533403 0.662642 6.23459 20.241 -2.72605 -0.0101403 0.00861002 -1.85323e-007 -7.57789 14.7581 15.1182 3.97569e-016 3.97569e-016 6.36111e-015 -178.71 -67.8299 -152.274 -90.0491 58.7856 -26.1626 17.9282 17.8429 -15.3286 14.0767 8.41223 -2.31489 103.925 -4.19665 69.2866 31.9615 57.926 85.4975 13.743 19.7039 2.86564 24.8923 -15.3144 -22.3451 -12.1453 25.3324 61.727 -29.5624 -2.99691 -1.69278 -1.18446e-009 1.5602e-007 -4.87132e-009 
179.31 94.8888 605.411 -15.9666 -6.01773 -61.8918 -21.4911 3.72492 20.2133 42.8113 19.9813 -49.1536 -24.8921 0.059327 -1.39536 0.0462048 0.000533403 0.662642 7.39909 20.1022 -2.97869 -0.0101403 0.00861002 -1.85323e-007 -7.66177 15.004 15.251 7.95139e-016 -1.39149e-015 -3.18055e-015 -179.469 -68.3479 -153.078 -89.3967 58.6676 -26.7423 17.8374 17.6846 -15.152 13.8682 8.53219 -2.01067 103.751 -4.6199 69.1533 32.4871 57.4657 85.2654 14.0135 19.7916 2.90627 24.8314 -16.1419 -23.1367 -11.107 27.0207 61.6109 -31.0738 -2.8722 -1.75244 -1.18447e-009 1.5602e-007 -4.87131e-009 
179.274 94.61 603.883 -16.2761 -5.92886 -61.9149 -21.1619 3.51879 19.865 43.8581 19.968 -50.1671 -24.05 0.041219 -1.37525 0.0462048 0.000533403 0.662642 8.56067 20.004 -3.24772 -0.0101403 0.00861002 -1.85323e-007 -7.69031 15.2181 15.3425 1.19271e-015 -1.78906e-015 -0 -179.994 -68.87 -153.507 -88.7035 58.5974 -27.3067 17.7702 17.498 -14.9875 13.5714 8.67857 -1.72849 103.675 -4.9893 69.0457 32.9417 57.0918 85.0534 14.6128 19.8385 2.76189 24.7155 -16.9278 -24.0471 -10.4349 28.6763 61.8373 -32.6539 -2.74237 -1.80626 -1.18447e-009 1.5602e-007 -4.87132e-009 
179.296 94.3787 602.363 -16.5868 -5.87769 -61.8624 -20.8651 3.2111 19.4332 44.964 20.1467 -51.2781 -23.1478 0.06116 -1.3569 0.0462048 0.000533403 0.662642 9.68665 19.9467 -3.5263 -0.0101403 0.00861002 -1.85323e-007 -7.66193 15.3942 15.3868 4.41391e-032 -3.97569e-016 6.36111e-015 179.776 -69.3926 -153.501 -87.9628 58.5687 -27.8621 17.7329 17.2799 -14.8437 13.1812 8.85059 -1.47464 103.706 -5.28886 68.9861 33.281 56.7918 84.8815 14.8871 19.9874 2.71093 24.5212 -17.7121 -25.0505 -10.1224 30.3113 62.3603 -33.7554 -2.63326 -1.84091 -1.18446e-009 1.5602e-007 -4.87131e-009 
179.386 94.2251 600.84 -16.8877 -5.86926 -61.7339 -20.5694 2.83726 18.9202 46.0146 20.4573 -52.4112 -22.1707 0.149164 -1.34716 0.0462048 0.000533403 0.662642 10.7431 19.93 -3.80738 -0.0101403 0.00861002 -1.85323e-007 -7.57721 15.5254 15.3816 7.95139e-016 7.95139e-016 6.36111e-015 179.885 -69.9081 -153.018 -87.1781 58.5689 -28.4083 17.7245 17.0338 -14.726 12.7075 9.04451 -1.25453 103.838 -5.51956 68.9849 33.467 56.5613 84.7846 15.3366 20.1209 2.53815 24.1684 -18.6063 -26.1254 -10.3476 31.8188 63.2321 -32.8102 -2.63609 -1.80713 -1.18447e-009 1.5602e-007 -4.87132e-009 
179.537 94.1153 599.335 -17.1665 -5.90851 -61.5308 -20.3204 2.38911 18.3443 47.0675 20.8965 -53.6012 -21.1082 0.224009 -1.33261 0.0462048 0.000533403 0.662642 11.6934 19.9532 -4.08276 -0.0101403 0.00861002 -1.85323e-007 -7.43913 15.605 15.3281 1.59028e-015 -7.95139e-016 -0 -179.636 -70.4053 -152.038 -86.3581 58.5826 -28.943 17.7503 16.763 -14.6426 12.1626 9.25271 -1.07725 104.056 -5.68639 69.0448 33.486 56.3886 84.7888 15.5815 20.2925 2.41403 23.8585 -19.3139 -27.2198 -10.9399 32.974 64.3336 -32.7577 -2.57016 -1.79583 -1.18447e-009 1.5602e-007 -4.87131e-009 
179.745 94.0688 597.839 -17.4099 -5.99863 -61.258 -20.0923 1.90278 17.7153 48.0303 21.4004 -54.792 -19.957 0.293179 -1.31554 0.0462048 0.000533403 0.662642 12.5003 20.0165 -4.34206 -0.0101403 0.00861002 -1.85323e-007 -7.25305 15.6274 15.2303 -2.38542e-015 7.95139e-016 9.54166e-015 -178.753 -70.8715 -150.541 -85.5026 58.5965 -29.4721 17.8031 16.4807 -14.5928 11.564 9.46831 -0.955739 104.34 -5.79014 69.1618 33.3463 56.2675 84.897 15.93 20.4147 2.21023 23.5461 -19.9 -28.3035 -11.8686 33.9395 65.6548 -32.7549 -2.4854 -1.78151 -1.18446e-009 1.5602e-007 -4.87132e-009 
